<?xml version="1.0" encoding="UTF-8" standalone="no"?>
<svg
   xmlns:dc="http://purl.org/dc/elements/1.1/"
   xmlns:cc="http://creativecommons.org/ns#"
   xmlns:rdf="http://www.w3.org/1999/02/22-rdf-syntax-ns#"
   xmlns:svg="http://www.w3.org/2000/svg"
   xmlns="http://www.w3.org/2000/svg"
   viewBox="0 0 425.20001 159.10001"
   height="159.10001"
   width="425.20001"
   xml:space="preserve"
   version="1.1"
   id="svg2"><metadata
     id="metadata8"><rdf:RDF><cc:Work
         rdf:about=""><dc:format>image/svg+xml</dc:format><dc:type
           rdf:resource="http://purl.org/dc/dcmitype/StillImage" /></cc:Work></rdf:RDF></metadata><defs
     id="defs6"><clipPath
       id="clipPath18"
       clipPathUnits="userSpaceOnUse"><path
         id="path20"
         d="M 0,1272.76 0,0 l 3401.6,0 0,1272.76 -3401.6,0 z" /></clipPath></defs><g
     transform="matrix(1.25,0,0,-1.25,0,159.1)"
     id="g10"><g
       transform="scale(0.1,0.1)"
       id="g12"><g
         id="g14"><g
           clip-path="url(#clipPath18)"
           id="g16"><path
             id="path22"
             style="fill:none;stroke:#00adef;stroke-width:77.2315979;stroke-linecap:butt;stroke-linejoin:miter;stroke-miterlimit:4;stroke-dasharray:none;stroke-opacity:1"
             d="m 0,38.6094 3401.6,0" /><path
             id="path24"
             style="fill:none;stroke:#00adef;stroke-width:77.2315979;stroke-linecap:butt;stroke-linejoin:miter;stroke-miterlimit:4;stroke-dasharray:none;stroke-opacity:1"
             d="m 0,1234.14 3401.6,0" /><path
             id="path26"
             style="fill:#33b652;fill-opacity:1;fill-rule:nonzero;stroke:none"
             d="m 63.1211,740.098 58.3589,0 c 54.571,0 69.282,27.043 69.282,51.242 0,29.43 -22.774,50.297 -71.657,50.297 l -55.9839,0 0,-101.539 z m 0,143.3 30.8398,0 c 46.0271,0 68.3281,17.082 68.3281,51.719 0,24.199 -13.758,45.078 -56.465,45.078 l -42.7029,0 0,-96.797 z m -46.5,138.552 93.9489,0 c 69.75,0 99.645,-41.755 99.645,-82.563 0,-33.692 -15.653,-55.52 -49.352,-69.274 l 0,-0.953 c 48.407,-9.015 77.821,-40.808 77.821,-84.461 0,-39.855 -29.891,-86.359 -111.032,-86.359 l -111.0309,0 0,323.61" /><path
             id="path28"
             style="fill:#33b652;fill-opacity:1;fill-rule:nonzero;stroke:none"
             d="m 370.641,803.672 c -36.071,-12.332 -67.383,-24.668 -67.383,-49.813 0,-17.558 12.804,-29.894 30.363,-29.894 13.281,0 25.625,6.64 37.02,17.551 l 0,62.156 z m 72.589,-92.996 c -19.453,-12.813 -27.515,-16.602 -40.804,-16.602 -18.508,0 -28.473,6.641 -32.266,21.824 -18.512,-14.707 -37.965,-21.824 -57.418,-21.824 -31.316,0 -52.195,24.676 -52.195,52.188 0,42.234 38.437,55.047 72.601,67.383 l 37.493,13.285 0,11.39 c 0,26.571 -12.821,37.481 -38.446,37.481 -23.25,0 -46.968,-10.91 -67.375,-35.106 l 0,46.02 c 16.606,19.457 39.86,28.949 70.703,28.949 43.176,0 77.344,-21.828 77.344,-70.226 l 0,-109.614 c 0,-8.062 2.848,-10.91 8.063,-10.91 4.269,0 12.808,4.266 22.3,11.387 l 0,-25.625" /><path
             id="path30"
             style="fill:#33b652;fill-opacity:1;fill-rule:nonzero;stroke:none"
             d="m 530.09,911.395 67.375,0 0,-37.965 -67.375,0 0,-109.133 c 0,-25.149 18.023,-32.27 30.363,-32.27 15.184,0 30.848,5.219 47.926,15.661 l 0,-39.387 c -14.707,-8.067 -37.481,-14.227 -51.238,-14.227 -46.032,0 -69.282,28.465 -69.282,66.903 l 0,112.453 -37.015,0 0,4.75 79.246,77.34 0,-44.125" /><path
             id="path32"
             style="fill:#33b652;fill-opacity:1;fill-rule:nonzero;stroke:none"
             d="m 680.055,883.398 0.945,0 c 16.133,20.399 39.855,32.266 63.586,32.266 41.754,0 72.598,-28.469 72.598,-86.836 l 0,-130.488 -42.235,0 0,131.914 c 0,31.316 -16.133,51.719 -41.758,51.719 -18.5,0 -33.211,-8.543 -53.136,-30.84 l 0,-152.793 -42.239,0 0,323.61 42.239,0 0,-138.552" /><path
             id="path34"
             style="fill:#33b652;fill-opacity:1;fill-rule:nonzero;stroke:none"
             d="m 1059.23,890.516 c 34.64,21.824 42.23,36.062 42.23,52.668 0,18.98 -15.66,33.218 -37.02,33.218 -19.92,0 -35.1,-13.285 -35.1,-30.843 0,-19.934 16.12,-41.762 29.89,-55.043 z m -12.34,-55.039 c -36.06,-22.782 -56.468,-39.391 -56.468,-64.539 1.426,-18.504 18.978,-34.165 39.858,-34.165 23.72,0 46.97,15.661 69.28,37.965 l -52.67,60.739 z m 165.13,23.718 c -9.02,-26.093 -28.48,-57.886 -52.67,-84.937 l 65.47,-75.918 -59.78,0 -37.01,44.133 c -40.33,-36.543 -73.07,-48.399 -102.5,-48.399 -44.124,0 -81.608,33.688 -81.608,76.864 0,38.914 31.316,69.285 76.398,95.382 -18.99,19.922 -36.543,47.45 -36.543,74.965 0,45.078 32.743,74.495 83.043,74.495 45.55,0 77.81,-30.839 77.81,-70.221 0,-31.325 -17.55,-56.946 -59.31,-86.364 l 45.56,-52.191 c 13.29,13.285 27.52,36.058 34.64,52.191 l 46.5,0" /><path
             id="path36"
             style="fill:#33b652;fill-opacity:1;fill-rule:nonzero;stroke:none"
             d="m 1646.72,698.34 -39.86,0 -216.37,249.113 0,-249.113 -43.66,0 0,323.61 37.02,0 219.22,-250.532 0,250.532 43.65,0 0,-323.61" /><path
             id="path38"
             style="fill:#33b652;fill-opacity:1;fill-rule:nonzero;stroke:none"
             d="m 1742.62,807.004 c 0,-45.078 28,-74.977 68.8,-74.977 44.61,0 72.59,28.473 72.59,74.496 0,41.286 -30.37,71.176 -72.59,71.176 -39.87,0 -68.8,-29.89 -68.8,-70.695 z m 184.58,0 c 0,-67.383 -46.98,-112.93 -115.32,-112.93 -65.46,0 -112.45,47.442 -112.45,112.93 0,61.215 48.88,108.66 112.45,108.66 66.92,0 115.32,-45.551 115.32,-108.66" /><path
             id="path40"
             style="fill:#33b652;fill-opacity:1;fill-rule:nonzero;stroke:none"
             d="m 2019.29,911.395 0,-48.879 0.94,0 c 21.36,37.492 41.76,53.148 61.69,53.148 17.08,0 33.22,-8.066 50.77,-24.676 l -22.3,-36.539 c -12.81,12.34 -29.42,20.879 -39.38,20.879 -28.95,0 -51.72,-28.941 -51.72,-65.476 l 0,-111.512 -42.23,0 0,213.055 42.23,0" /><path
             id="path42"
             style="fill:#33b652;fill-opacity:1;fill-rule:nonzero;stroke:none"
             d="m 2220.87,911.395 67.38,0 0,-37.965 -67.38,0 0,-109.133 c 0,-25.149 18.03,-32.27 30.37,-32.27 15.18,0 30.84,5.219 47.93,15.661 l 0,-39.387 c -14.71,-8.067 -37.49,-14.227 -51.25,-14.227 -46.04,0 -69.28,28.465 -69.28,66.903 l 0,112.453 -37.01,0 0,4.75 79.24,77.34 0,-44.125" /><path
             id="path44"
             style="fill:#33b652;fill-opacity:1;fill-rule:nonzero;stroke:none"
             d="m 2370.83,883.398 0.96,0 c 16.13,20.399 39.85,32.266 63.57,32.266 41.76,0 72.6,-28.469 72.6,-86.836 l 0,-130.488 -42.23,0 0,131.914 c 0,31.316 -16.13,51.719 -41.76,51.719 -18.5,0 -33.21,-8.543 -53.14,-30.84 l 0,-152.793 -42.23,0 0,323.61 42.23,0 0,-138.552" /><path
             id="path46"
             style="fill:#33b652;fill-opacity:1;fill-rule:nonzero;stroke:none"
             d="m 2840.63,980.195 -137.12,0 0,-97.75 132.38,0 0,-41.75 -132.38,0 0,-100.597 141.4,0 0,-41.758 -187.9,0 0,323.61 183.62,0 0,-41.755" /><path
             id="path48"
             style="fill:#33b652;fill-opacity:1;fill-rule:nonzero;stroke:none"
             d="m 2981.13,803.672 c -36.06,-12.332 -67.38,-24.668 -67.38,-49.813 0,-17.558 12.81,-29.894 30.37,-29.894 13.28,0 25.62,6.64 37.01,17.551 l 0,62.156 z m 72.6,-92.996 c -19.46,-12.813 -27.52,-16.602 -40.81,-16.602 -18.52,0 -28.48,6.641 -32.27,21.824 -18.51,-14.707 -37.96,-21.824 -57.42,-21.824 -31.31,0 -52.19,24.676 -52.19,52.188 0,42.234 38.44,55.047 72.6,67.383 l 37.49,13.285 0,11.39 c 0,26.571 -12.82,37.481 -38.44,37.481 -23.25,0 -46.98,-10.91 -67.38,-35.106 l 0,46.02 c 16.61,19.457 39.86,28.949 70.71,28.949 43.17,0 77.34,-21.828 77.34,-70.226 l 0,-109.614 c 0,-8.062 2.85,-10.91 8.07,-10.91 4.26,0 12.8,4.266 22.3,11.387 l 0,-25.625" /><path
             id="path50"
             style="fill:#33b652;fill-opacity:1;fill-rule:nonzero;stroke:none"
             d="m 3215.08,856.348 c -23.72,15.66 -46.03,22.304 -61.68,22.304 -17.08,0 -28,-8.058 -28,-19.457 0,-9.492 14.24,-20.875 51.72,-42.699 35.12,-23.254 47.93,-37.961 47.93,-59.797 0,-37.484 -29.9,-62.625 -70.24,-62.625 -26.09,0 -46.5,5.215 -74.02,19.453 l 0,45.547 c 27.52,-18.976 52.68,-27.988 69.76,-27.988 17.08,0.941 31.32,9.012 31.32,24.199 0,29.414 -99.65,45.074 -99.65,102.485 0,36.066 27.52,57.894 70.23,57.894 19.92,0 40.33,-5.695 62.63,-17.559 l 0,-41.757" /><path
             id="path52"
             style="fill:#33b652;fill-opacity:1;fill-rule:nonzero;stroke:none"
             d="m 3323.29,911.395 67.38,0 0,-37.965 -67.38,0 0,-109.133 c 0,-25.149 18.03,-32.27 30.37,-32.27 15.18,0 30.84,5.219 47.93,15.661 l 0,-39.387 c -14.71,-8.067 -37.48,-14.227 -51.25,-14.227 -46.03,0 -69.28,28.465 -69.28,66.903 l 0,112.453 -37.01,0 0,4.75 79.24,77.34 0,-44.125" /><path
             id="path54"
             style="fill:#33b652;fill-opacity:1;fill-rule:nonzero;stroke:none"
             d="m 170.359,507.52 c -27.523,26.093 -54.093,33.683 -75.9215,33.683 -29.8906,0 -51.25,-15.656 -51.25,-38.43 0,-62.168 139.9885,-61.211 139.9885,-164.179 0,-50.782 -38.442,-87.793 -90.633,-87.793 -35.1172,0 -63.586,9.488 -90.63675,29.902 l 0,58.84 C 25.6367,309.172 55.5312,292.57 87.3203,292.57 c 36.0627,0 52.6677,22.762 52.6677,40.801 0,66.902 -139.9762812,74.5 -139.9762812,163.231 0,52.668 38.9023812,86.359 98.2265812,86.359 24.6717,0 49.3437,-7.59 72.1207,-22.785 l 0,-52.656" /><path
             id="path56"
             style="fill:#33b652;fill-opacity:1;fill-rule:nonzero;stroke:none"
             d="m 258.645,363.742 c 0,-45.078 27.996,-74.972 68.8,-74.972 44.606,0 72.606,28.468 72.606,74.492 0,41.281 -30.367,71.183 -72.606,71.183 -39.851,0 -68.8,-29.902 -68.8,-70.703 z m 184.582,0 c 0,-67.383 -46.977,-112.941 -115.301,-112.941 -65.485,0 -112.457,47.461 -112.457,112.941 0,61.211 48.871,108.66 112.457,108.66 66.902,0 115.301,-45.554 115.301,-108.66" /><path
             id="path58"
             style="fill:#33b652;fill-opacity:1;fill-rule:nonzero;stroke:none"
             d="m 530.57,468.125 0,-27.988 c 21.828,21.828 42.227,32.265 62.16,32.265 27.043,0 49.344,-13.281 63.579,-38.437 18.503,20.879 40.808,38.437 71.175,38.437 43.18,0 70.7,-33.222 70.7,-83.515 l 0,-133.809 -42.227,0 0,131.914 c 0,32.266 -19.934,49.817 -44.133,49.817 -13.762,0.476 -32.262,-11.387 -47.449,-27.043 l 0,-154.688 -42.23,0 0,132.383 c 0,34.641 -17.559,49.348 -38.438,49.348 -21.348,0 -35.586,-6.641 -53.137,-27.043 l 0,-154.688 -42.242,0 0,213.047 42.242,0" /><path
             id="path60"
             style="fill:#33b652;fill-opacity:1;fill-rule:nonzero;stroke:none"
             d="m 996.109,383.195 c -1.425,32.266 -19.933,52.664 -49.824,52.664 -32.265,0 -51.719,-18.972 -57.418,-52.664 l 107.242,0 z m 37.961,-107.238 c -25.63,-17.086 -48.879,-25.156 -84.937,-25.156 -66.434,0 -103.445,54.57 -103.445,113.418 0,64.531 40.804,108.183 99.644,108.183 56.468,0 92.528,-38.437 92.528,-117.207 l -149.938,0 c 6.644,-42.226 30.84,-64.062 71.652,-64.062 25.617,0 49.816,9.492 74.496,25.637 l 0,-40.813" /><path
             id="path62"
             style="fill:#33b652;fill-opacity:1;fill-rule:nonzero;stroke:none"
             d="m 1128.52,468.125 0,-48.867 0.95,0 c 21.35,37.48 41.76,53.144 61.69,53.144 17.08,0 33.21,-8.066 50.77,-24.675 l -22.31,-36.536 c -12.81,12.336 -29.41,20.879 -39.38,20.879 -28.94,0 -51.72,-28.945 -51.72,-65.476 l 0,-111.516 -42.23,0 0,213.047 42.23,0" /><path
             id="path64"
             style="fill:#33b652;fill-opacity:1;fill-rule:nonzero;stroke:none"
             d="m 1395.22,413.086 c -23.73,15.664 -46.03,22.305 -61.68,22.305 -17.09,0 -28,-8.067 -28,-19.453 0,-9.493 14.23,-20.879 51.72,-42.715 35.11,-23.243 47.93,-37.957 47.93,-59.785 0,-37.481 -29.9,-62.637 -70.23,-62.637 -26.1,0 -46.5,5.238 -74.03,19.461 l 0,45.558 c 27.53,-18.984 52.68,-28.008 69.76,-28.008 17.08,0.958 31.32,9.024 31.32,24.211 0,29.415 -99.65,45.079 -99.65,102.489 0,36.054 27.52,57.89 70.22,57.89 19.93,0 40.34,-5.703 62.64,-17.558 l 0,-41.758" /><path
             id="path66"
             style="fill:#33b652;fill-opacity:1;fill-rule:nonzero;stroke:none"
             d="m 1594.06,383.195 c -1.43,32.266 -19.93,52.664 -49.83,52.664 -32.26,0 -51.72,-18.972 -57.41,-52.664 l 107.24,0 z m 37.96,-107.238 c -25.63,-17.086 -48.88,-25.156 -84.94,-25.156 -66.43,0 -103.44,54.57 -103.44,113.418 0,64.531 40.81,108.183 99.65,108.183 56.46,0 92.53,-38.437 92.53,-117.207 l -149.95,0 c 6.64,-42.226 30.84,-64.062 71.65,-64.062 25.62,0 49.82,9.492 74.5,25.637 l 0,-40.813" /><path
             id="path68"
             style="fill:#33b652;fill-opacity:1;fill-rule:nonzero;stroke:none"
             d="m 1730.74,468.125 67.38,0 0,-37.957 -67.38,0 0,-109.133 c 0,-25.156 18.04,-32.265 30.36,-32.265 15.2,0 30.85,5.214 47.93,15.656 l 0,-39.387 c -14.7,-8.07 -37.48,-14.238 -51.25,-14.238 -46.01,0 -69.26,28.476 -69.26,66.914 l 0,112.453 -37.02,0 0,4.746 79.24,77.344 0,-44.133" /><path
             id="path70"
             style="fill:#33b652;fill-opacity:1;fill-rule:nonzero;stroke:none"
             d="m 2252.73,506.562 c -39.85,23.254 -74.02,33.692 -111.51,33.692 -74.02,0 -129.06,-52.676 -129.06,-123.848 0,-72.597 53.14,-122.89 130.96,-122.89 36.54,0 76.4,12.812 112.93,36.523 l 0,-50.762 c -31.78,-16.605 -66.42,-28.476 -117.19,-28.476 -121.48,0 -174.62,93.488 -174.62,161.34 0,98.699 74.5,170.82 177.47,170.82 33.2,0 66.89,-8.066 111.02,-26.574 l 0,-49.825" /><path
             id="path72"
             style="fill:#33b652;fill-opacity:1;fill-rule:nonzero;stroke:none"
             d="m 2337.72,363.742 c 0,-45.078 27.99,-74.972 68.8,-74.972 44.6,0 72.6,28.468 72.6,74.492 0,41.281 -30.37,71.183 -72.6,71.183 -39.85,0 -68.8,-29.902 -68.8,-70.703 z m 184.58,0 c 0,-67.383 -46.98,-112.941 -115.3,-112.941 -65.49,0 -112.46,47.461 -112.46,112.941 0,61.211 48.87,108.66 112.46,108.66 66.9,0 115.3,-45.554 115.3,-108.66" /><path
             id="path74"
             style="fill:#33b652;fill-opacity:1;fill-rule:nonzero;stroke:none"
             d="m 2704.54,255.078 0,27.051 c -17.56,-18.981 -42.23,-31.328 -63.1,-31.328 -43.19,0 -73.56,30.851 -73.56,84.941 l 0,132.383 42.23,0 0,-135.234 c 0,-29.883 14.72,-46.973 43.66,-46.973 18.99,0 37.01,10.441 50.77,29.902 l 0,152.305 42.23,0 0,-213.047 -42.23,0" /><path
             id="path76"
             style="fill:#33b652;fill-opacity:1;fill-rule:nonzero;stroke:none"
             d="m 2847.88,440.137 0.95,0 c 16.12,20.402 39.85,32.265 63.58,32.265 40.33,0 72.6,-27.527 72.6,-85.886 l 0,-131.438 -42.24,0 0,131.914 c 0,31.32 -16.12,51.719 -41.74,51.719 -18.52,0 -33.23,-8.543 -53.15,-30.84 l 0,-152.793 -42.24,0 0,213.047 42.24,0 0,-27.988" /><path
             id="path78"
             style="fill:#33b652;fill-opacity:1;fill-rule:nonzero;stroke:none"
             d="m 3200.47,412.609 c -24.2,16.141 -40.33,20.887 -58.84,20.887 -38.44,0 -65.01,-28.953 -65.01,-72.129 0,-44.129 28.47,-70.703 72.13,-70.703 18.04,0 35.11,4.746 56.46,14.238 l 0,-41.754 c -14.23,-6.636 -41.27,-12.347 -63.58,-12.347 -63.59,0 -108.18,44.14 -108.18,106.769 0,70.223 40.8,114.832 105.33,114.832 24.68,0 41.29,-5.703 61.69,-14.707 l 0,-45.086" /><path
             id="path80"
             style="fill:#33b652;fill-opacity:1;fill-rule:nonzero;stroke:none"
             d="m 3294.91,255.078 -42.22,0 0,213.047 42.22,0 0,-213.047 z m -20.87,252.442 c -13.76,0 -25.14,11.386 -25.14,25.136 0,13.77 11.38,25.156 25.14,25.156 13.76,0 25.15,-11.386 25.15,-25.156 0,-13.75 -11.39,-25.136 -25.15,-25.136" /><path
             id="path82"
             style="fill:#33b652;fill-opacity:1;fill-rule:nonzero;stroke:none"
             d="m 3356.62,255.078 42.2305,0 0,323.613 -42.2305,0 0,-323.613 z" /></g></g></g></g></svg>